<svg xmlns="http://www.w3.org/2000/svg" xmlns:xlink="http://www.w3.org/1999/xlink" width="100" zoomAndPan="magnify" viewBox="0 0 375 374.999991" height="100" preserveAspectRatio="xMidYMid meet" version="1.0"><defs><g/><clipPath id="b34906d006"><path d="M 6.457031 135.09375 L 86.707031 135.09375 L 86.707031 240.09375 L 6.457031 240.09375 Z M 6.457031 135.09375 " clip-rule="nonzero"/></clipPath></defs><g clip-path="url(#b34906d006)"><path fill="#5d7666" d="M 85.894531 146.054688 C 85.179688 143.246094 83.382812 140.921875 80.644531 139.855469 C 79.464844 139.390625 78.125 139.261719 76.886719 139.574219 C 75.507812 139.917969 74.375 140.832031 73.582031 141.988281 C 71.652344 144.796875 72.160156 148.292969 72.367188 151.476562 C 72.59375 154.941406 72.433594 158.464844 71.773438 161.875 C 71.261719 164.546875 70.152344 167.664062 67.304688 168.613281 C 66.820312 168.773438 66.308594 168.867188 65.800781 168.84375 C 65.488281 165.460938 65.070312 162.082031 64.550781 158.730469 C 63.933594 154.773438 63.273438 150.738281 62.101562 146.90625 C 61.042969 143.425781 59.324219 140.0625 56.320312 137.875 C 53.527344 135.84375 49.851562 135.113281 46.65625 136.628906 C 45.042969 137.390625 43.703125 138.660156 42.5 139.949219 C 41.199219 141.347656 39.945312 142.789062 38.75 144.273438 C 36.300781 147.316406 34.3125 150.613281 33.523438 154.476562 C 33.113281 156.507812 32.953125 158.585938 32.839844 160.65625 C 32.722656 162.835938 32.609375 165.019531 32.496094 167.199219 C 32.265625 171.570312 32.039062 175.945312 31.804688 180.316406 C 31.339844 189.121094 30.875 197.9375 30.417969 206.746094 C 30.378906 207.566406 30.335938 208.375 30.289062 209.191406 C 30.28125 209.191406 30.28125 209.191406 30.273438 209.191406 C 27.238281 209.441406 24.269531 207.894531 22.800781 205.214844 C 21.160156 202.238281 21.296875 198.554688 21.160156 195.257812 C 21.082031 193.277344 21.007812 191.296875 20.914062 189.324219 C 20.847656 187.886719 20.710938 186.4375 20.335938 185.046875 C 19.972656 183.707031 19.363281 182.386719 18.351562 181.414062 C 17.292969 180.402344 15.855469 179.824219 14.386719 179.914062 C 11.265625 180.089844 8.71875 182.53125 7.699219 185.359375 C 6.457031 188.867188 7.113281 192.757812 7.289062 196.382812 C 7.492188 200.394531 7.46875 204.402344 7.28125 208.414062 C 7.144531 211.382812 7.074219 214.535156 8.359375 217.277344 C 9.007812 218.660156 10.066406 219.835938 11.390625 220.597656 C 12.878906 221.449219 14.5625 221.785156 16.242188 221.988281 C 18.03125 222.210938 19.851562 222.347656 21.652344 222.4375 C 23.570312 222.53125 25.488281 222.5 27.390625 222.226562 C 28.21875 222.109375 29.035156 221.9375 29.839844 221.707031 C 29.773438 225.414062 29.808594 229.125 30.097656 232.816406 C 30.265625 234.902344 30.523438 236.988281 30.90625 239.050781 C 30.996094 239.515625 31.566406 239.785156 31.992188 239.667969 C 32 239.667969 32.007812 239.660156 32.015625 239.660156 C 32.777344 239.996094 33.644531 239.957031 34.464844 239.980469 C 36.613281 240.058594 38.773438 240.074219 40.925781 240.042969 C 41.550781 240.035156 42.1875 240.019531 42.8125 239.996094 C 43.003906 240.042969 43.214844 240.035156 43.390625 239.980469 C 46.875 239.851562 50.359375 239.570312 53.824219 239.144531 C 55.945312 238.886719 58.054688 238.574219 60.160156 238.207031 C 61.941406 237.894531 64.035156 237.621094 64.621094 235.601562 C 64.902344 234.621094 64.855469 233.507812 64.902344 232.496094 C 64.960938 231.414062 65.023438 230.328125 65.078125 229.246094 C 65.199219 227.046875 65.320312 224.84375 65.441406 222.644531 C 65.90625 214.101562 66.386719 205.558594 66.582031 197.007812 C 66.691406 192.164062 66.710938 187.316406 66.589844 182.472656 C 69.597656 183.050781 72.707031 183.003906 75.699219 182.3125 C 77.183594 181.96875 78.757812 181.503906 80.042969 180.652344 C 81.421875 179.730469 82.234375 178.414062 82.628906 176.816406 C 83.039062 175.164062 83.269531 173.457031 83.566406 171.78125 C 83.878906 170.023438 84.183594 168.265625 84.480469 166.503906 C 85.066406 162.933594 85.597656 159.347656 85.976562 155.746094 C 86.3125 152.5625 86.707031 149.214844 85.894531 146.054688 Z M 16.882812 182.457031 C 17.832031 183.242188 18.320312 184.335938 18.632812 185.511719 C 18.988281 186.8125 19.089844 188.089844 19.15625 189.429688 C 19.242188 191.34375 19.316406 193.261719 19.394531 195.179688 C 19.53125 198.546875 19.492188 202.078125 20.855469 205.230469 C 22.117188 208.148438 24.832031 210.316406 27.984375 210.835938 C 28.722656 210.957031 29.460938 211.003906 30.207031 210.957031 C 30.191406 211.222656 30.183594 211.488281 30.167969 211.757812 C 30.015625 211.695312 29.824219 211.6875 29.613281 211.742188 C 28.332031 212.113281 27.015625 212.371094 25.671875 212.457031 C 24.515625 212.53125 23.34375 212.472656 22.375 211.777344 C 20.761719 210.621094 20.125 208.375 19.5625 206.5625 C 17.933594 201.363281 16.777344 196.011719 16.152344 190.597656 C 15.816406 187.671875 15.621094 184.734375 15.574219 181.792969 C 16.046875 181.917969 16.496094 182.144531 16.882812 182.457031 Z M 13.800781 181.765625 C 13.898438 187.398438 14.515625 193.019531 15.65625 198.53125 C 16.242188 201.347656 16.957031 204.140625 17.816406 206.890625 C 18.480469 209.039062 19.226562 211.488281 21.042969 212.964844 C 22.246094 213.949219 23.699219 214.285156 25.238281 214.246094 C 26.878906 214.199219 28.515625 213.910156 30.089844 213.453125 C 30.089844 213.453125 30.097656 213.453125 30.097656 213.453125 C 30.054688 214.382812 30.015625 215.320312 29.984375 216.25 C 29.839844 216.203125 29.679688 216.195312 29.503906 216.234375 C 26.5 216.917969 23.335938 217.125 20.277344 216.71875 C 19.097656 216.554688 17.886719 216.269531 16.867188 215.640625 C 15.808594 214.992188 15.179688 213.980469 14.851562 212.800781 C 14.46875 211.398438 14.378906 209.921875 14.21875 208.488281 C 14.035156 206.828125 13.855469 205.167969 13.6875 203.503906 C 13.351562 200.207031 13.03125 196.910156 12.742188 193.613281 C 12.421875 189.964844 12.121094 186.308594 11.867188 182.65625 C 12.429688 182.265625 13.046875 181.96875 13.703125 181.808594 C 13.726562 181.785156 13.769531 181.773438 13.800781 181.765625 Z M 29.871094 219.878906 C 29.808594 219.886719 29.734375 219.894531 29.664062 219.917969 C 26.148438 221 22.429688 220.777344 18.808594 220.472656 C 15.953125 220.230469 12.476562 220.09375 10.589844 217.609375 C 8.953125 215.449219 8.910156 212.433594 8.984375 209.820312 C 9.03125 208.070312 9.136719 206.320312 9.175781 204.574219 C 9.21875 202.605469 9.199219 200.648438 9.144531 198.683594 C 9.089844 196.785156 8.960938 194.882812 8.839844 192.980469 C 8.734375 191.304688 8.640625 189.589844 8.886719 187.917969 C 9.082031 186.644531 9.449219 185.34375 10.195312 184.277344 C 10.660156 190.558594 11.214844 196.832031 11.867188 203.097656 C 12.042969 204.835938 12.226562 206.578125 12.421875 208.308594 C 12.597656 209.867188 12.691406 211.472656 13.070312 213.003906 C 13.414062 214.414062 14.097656 215.738281 15.253906 216.652344 C 16.328125 217.503906 17.621094 218 18.960938 218.265625 C 22.542969 218.988281 26.378906 218.738281 29.917969 217.9375 C 29.902344 218.5625 29.886719 219.1875 29.871094 219.820312 C 29.878906 219.835938 29.878906 219.863281 29.871094 219.878906 Z M 34.269531 238.214844 C 33.859375 238.199219 33.417969 238.222656 33.019531 238.140625 C 32.882812 238.117188 32.769531 238.039062 32.640625 237.988281 C 32.679688 237.703125 32.570312 237.4375 32.382812 237.246094 C 31.824219 233.652344 31.636719 230.007812 31.597656 226.367188 C 31.550781 222.15625 31.667969 217.9375 31.847656 213.734375 C 32.199219 205.300781 32.699219 196.871094 33.148438 188.441406 C 33.589844 180.035156 34.03125 171.628906 34.472656 163.222656 C 34.679688 159.308594 34.71875 155.25 36.238281 151.558594 C 37.601562 148.230469 39.996094 145.4375 42.347656 142.765625 C 43.359375 141.613281 44.433594 140.367188 45.660156 139.382812 C 42.699219 142.949219 40.371094 147.042969 38.8125 151.421875 C 36.503906 157.886719 36.261719 164.824219 35.8125 171.605469 C 35.339844 178.757812 34.9375 185.914062 34.71875 193.085938 C 34.503906 200.207031 34.472656 207.339844 34.734375 214.464844 C 35 221.609375 35.5625 228.75 36.519531 235.839844 C 36.628906 236.660156 36.742188 237.46875 36.863281 238.285156 C 35.996094 238.269531 35.128906 238.246094 34.269531 238.214844 Z M 38.605469 238.304688 C 38.613281 238.222656 38.605469 238.132812 38.589844 238.046875 C 37.554688 231.082031 36.925781 224.066406 36.597656 217.039062 C 36.269531 210.019531 36.238281 202.992188 36.398438 195.972656 C 36.558594 188.90625 36.917969 181.839844 37.359375 174.789062 C 37.578125 171.300781 37.792969 167.808594 38.089844 164.328125 C 38.371094 160.96875 38.804688 157.605469 39.722656 154.351562 C 41.214844 149.046875 43.886719 144.082031 47.5 139.917969 C 45.386719 145.238281 43.78125 150.746094 42.609375 156.355469 C 41.300781 162.613281 40.507812 168.972656 40.089844 175.351562 C 39.640625 182.113281 39.617188 188.898438 39.792969 195.667969 C 39.976562 202.488281 40.371094 209.296875 40.773438 216.109375 C 41.175781 222.933594 41.574219 229.753906 41.984375 236.578125 C 42.015625 237.140625 42.050781 237.703125 42.082031 238.253906 C 40.925781 238.285156 39.769531 238.304688 38.605469 238.304688 Z M 43.855469 238.199219 C 43.855469 238.167969 43.847656 238.140625 43.847656 238.117188 C 43.46875 231.683594 43.085938 225.253906 42.707031 218.820312 C 42.304688 212.007812 41.886719 205.199219 41.648438 198.378906 C 41.414062 191.601562 41.367188 184.816406 41.703125 178.039062 C 42.023438 171.691406 42.683594 165.363281 43.863281 159.121094 C 44.84375 153.910156 46.183594 148.75 47.949219 143.746094 C 47.460938 155.175781 46.953125 166.605469 46.488281 178.039062 C 45.957031 190.847656 45.574219 203.675781 46.167969 216.492188 C 46.503906 223.679688 47.164062 230.84375 48.253906 237.957031 C 46.785156 238.054688 45.324219 238.132812 43.855469 238.199219 Z M 49.988281 237.796875 C 49.988281 237.75 49.980469 237.703125 49.972656 237.652344 C 48.011719 225.011719 47.523438 212.183594 47.636719 199.40625 C 47.75 186.523438 48.421875 173.648438 48.976562 160.773438 C 49.175781 156.128906 49.378906 151.492188 49.570312 146.847656 C 51.457031 156.667969 52.476562 166.636719 52.652344 176.648438 C 52.886719 189.539062 51.945312 202.414062 51.820312 215.304688 C 51.746094 222.539062 51.929688 229.785156 52.710938 236.988281 C 52.734375 237.179688 52.796875 237.363281 52.902344 237.507812 C 51.929688 237.605469 50.960938 237.710938 49.988281 237.796875 Z M 57.871094 233.867188 C 57.832031 234.71875 57.789062 235.566406 57.75 236.425781 C 57.742188 236.59375 57.773438 236.730469 57.832031 236.851562 C 57.101562 236.957031 56.378906 237.042969 55.664062 237.148438 C 55.253906 237.203125 54.835938 237.261719 54.425781 237.316406 C 54.476562 237.210938 54.492188 237.101562 54.484375 236.980469 C 53.785156 230.554688 53.558594 224.089844 53.578125 217.632812 C 53.59375 211.15625 53.839844 204.683594 54.066406 198.210938 C 54.300781 191.707031 54.507812 185.199219 54.453125 178.6875 C 54.394531 172.261719 54.042969 165.84375 53.304688 159.460938 C 52.566406 153.097656 51.488281 146.769531 50.050781 140.527344 C 50.027344 140.441406 50.011719 140.351562 49.988281 140.257812 C 52.574219 144.660156 54.554688 149.390625 56.015625 154.285156 C 57.78125 160.1875 58.808594 166.292969 59.339844 172.421875 C 59.917969 179.214844 59.910156 186.050781 59.703125 192.867188 C 59.492188 199.6875 59.125 206.503906 58.808594 213.324219 C 58.503906 220.175781 58.183594 227.023438 57.871094 233.867188 Z M 64.1875 213.234375 C 63.980469 217.359375 63.746094 221.472656 63.523438 225.597656 L 63.175781 231.894531 C 63.121094 232.871094 63.167969 233.929688 62.984375 234.894531 C 62.832031 235.65625 62.328125 235.953125 61.613281 236.136719 C 60.921875 236.320312 60.214844 236.464844 59.5 236.585938 C 59.507812 236.53125 59.515625 236.480469 59.523438 236.417969 C 59.847656 229.503906 60.167969 222.589844 60.488281 215.675781 C 60.808594 208.785156 61.164062 201.902344 61.410156 195.003906 C 61.660156 188.183594 61.742188 181.359375 61.28125 174.546875 C 60.859375 168.234375 59.949219 161.929688 58.304688 155.816406 C 56.714844 149.90625 54.417969 144.15625 51.265625 138.898438 C 50.992188 138.441406 50.710938 137.992188 50.421875 137.542969 C 53.542969 137.601562 56.371094 139.644531 58.054688 142.164062 C 60.039062 145.125 60.859375 148.671875 61.578125 152.113281 C 62.40625 156.082031 63.058594 160.09375 63.546875 164.113281 C 64.535156 172.230469 64.902344 180.410156 64.925781 188.59375 C 64.933594 196.824219 64.605469 205.039062 64.1875 213.234375 Z M 66.035156 171.476562 C 66.011719 171.179688 65.988281 170.890625 65.960938 170.59375 C 68.628906 170.585938 70.949219 168.765625 72.160156 166.40625 C 72.859375 165.050781 73.257812 163.574219 73.53125 162.082031 C 73.835938 160.40625 74.039062 158.707031 74.144531 157.003906 C 74.246094 155.296875 74.253906 153.578125 74.160156 151.871094 C 74.0625 150.171875 73.828125 148.460938 73.917969 146.761719 C 74.007812 145.011719 74.632812 143.023438 75.996094 141.949219 C 77.753906 147.019531 78.460938 152.390625 78.085938 157.742188 C 77.890625 160.40625 77.449219 163.09375 76.648438 165.644531 C 75.910156 167.976562 74.761719 170.257812 72.90625 171.902344 C 71.109375 173.488281 68.605469 174.4375 66.210938 173.921875 C 66.15625 173.105469 66.097656 172.285156 66.035156 171.476562 Z M 66.316406 175.726562 C 68.605469 176.070312 70.972656 175.40625 72.882812 174.113281 C 75.179688 172.574219 76.710938 170.265625 77.746094 167.746094 C 78.824219 165.121094 79.351562 162.28125 79.683594 159.484375 C 80.019531 156.554688 80.035156 153.59375 79.722656 150.667969 C 79.382812 147.441406 78.6875 144.273438 77.601562 141.21875 C 77.652344 141.210938 77.707031 141.203125 77.753906 141.195312 C 78.703125 141.066406 79.828125 141.339844 80.75 141.835938 C 80.773438 141.851562 80.796875 141.859375 80.820312 141.875 C 83.179688 148.019531 82.804688 154.757812 81.890625 161.152344 C 81.085938 166.742188 79.808594 173.28125 74.816406 176.707031 C 72.402344 178.359375 69.414062 179.167969 66.597656 178.191406 C 66.539062 178.171875 66.492188 178.15625 66.4375 178.15625 C 66.40625 177.347656 66.363281 176.539062 66.316406 175.726562 Z M 81.558594 173.015625 C 81.414062 173.816406 81.269531 174.621094 81.117188 175.421875 C 80.980469 176.128906 80.84375 176.867188 80.539062 177.523438 C 79.96875 178.742188 78.832031 179.449219 77.609375 179.914062 C 74.640625 181.027344 71.367188 181.359375 68.21875 180.964844 C 67.65625 180.894531 67.09375 180.796875 66.539062 180.667969 C 66.53125 180.453125 66.523438 180.234375 66.515625 180.019531 C 69.207031 180.8125 72.097656 180.265625 74.535156 178.953125 C 77.242188 177.5 79.296875 175.148438 80.660156 172.429688 C 81.585938 170.601562 82.210938 168.652344 82.683594 166.664062 C 82.324219 168.78125 81.945312 170.898438 81.558594 173.015625 Z M 84.5 152.65625 C 84.441406 153.425781 84.371094 154.207031 84.296875 154.976562 C 84.335938 154.253906 84.363281 153.53125 84.371094 152.808594 C 84.394531 150.097656 84.167969 147.355469 83.542969 144.714844 C 84.753906 147.121094 84.691406 150.035156 84.5 152.65625 Z M 84.5 152.65625 " fill-opacity="1" fill-rule="nonzero"/></g><g fill="#f1b24a" fill-opacity="1"><g transform="translate(82.213768, 235.864623)"><g><path d="M 69.902344 -61.144531 L 29.917969 -61.144531 L 29.917969 -96.316406 C 29.917969 -98.210938 28.894531 -99.234375 26.996094 -99.234375 L 10.945312 -99.234375 C 9.046875 -99.234375 8.027344 -98.210938 8.027344 -96.316406 L 8.027344 2.917969 C 20.722656 0 29.917969 -10.800781 29.917969 -29.039062 L 29.917969 -55.382812 C 33.417969 -46.988281 42.464844 -41.296875 56.183594 -41.296875 L 69.902344 -41.296875 L 69.902344 -2.917969 C 69.902344 -1.023438 70.921875 0 72.820312 0 L 88.871094 0 C 90.769531 0 91.792969 -1.023438 91.792969 -2.917969 L 91.792969 -102.152344 C 79.09375 -99.234375 69.902344 -88.433594 69.902344 -70.195312 Z M 69.902344 -61.144531 "/></g></g></g><g fill="#f1b24a" fill-opacity="1"><g transform="translate(182.155154, 235.864623)"><g><path d="M 45.675781 1.460938 C 70.339844 1.460938 84.785156 -12.257812 84.785156 -39.839844 L 84.785156 -99.234375 C 72.089844 -97.773438 62.898438 -86.976562 62.898438 -68.734375 L 62.898438 -39.839844 C 62.898438 -26.121094 59.101562 -18.386719 45.675781 -18.386719 C 32.542969 -18.386719 28.75 -26.121094 28.75 -39.839844 L 28.75 -96.316406 C 28.75 -98.210938 27.726562 -99.234375 25.828125 -99.234375 L 9.777344 -99.234375 C 7.878906 -99.234375 6.859375 -98.210938 6.859375 -96.316406 L 6.859375 -38.671875 C 6.859375 -12.257812 21.304688 1.460938 45.675781 1.460938 Z M 45.675781 1.460938 "/></g></g></g><g fill="#f1b24a" fill-opacity="1"><g transform="translate(273.780228, 235.864623)"><g><path d="M 34.441406 0 C 71.359375 0 88.144531 -21.597656 88.144531 -49.617188 C 88.144531 -77.636719 71.214844 -99.234375 34.441406 -99.234375 L 10.800781 -99.234375 C 8.902344 -99.234375 7.878906 -98.210938 7.878906 -96.316406 L 7.878906 -2.917969 C 7.878906 -1.023438 8.902344 0 10.800781 0 Z M 29.769531 -79.386719 L 36.484375 -79.386719 C 57.789062 -79.386719 66.253906 -66.105469 66.253906 -49.617188 C 66.253906 -33.125 57.644531 -19.847656 36.484375 -19.847656 L 29.769531 -19.847656 Z M 29.769531 -79.386719 "/></g></g></g></svg>